<?xml version="1.0" encoding="UTF-8" standalone="no"?>
<svg
   viewBox="0 0 210.4 210.4"
   width="2500"
   height="2500"
   version="1.1"
   id="svg2"
   sodipodi:docname="unreal-1.svg"
   inkscape:export-filename="unreal-1.svg"
   inkscape:export-xdpi="96"
   inkscape:export-ydpi="96"
   inkscape:version="1.3.2 (091e20e, 2023-11-25)"
   xmlns:inkscape="http://www.inkscape.org/namespaces/inkscape"
   xmlns:sodipodi="http://sodipodi.sourceforge.net/DTD/sodipodi-0.dtd"
   xmlns="http://www.w3.org/2000/svg"
   xmlns:svg="http://www.w3.org/2000/svg">
  <defs
     id="defs2" />
  <sodipodi:namedview
     id="namedview2"
     pagecolor="#ffffff"
     bordercolor="#000000"
     borderopacity="0.25"
     inkscape:showpageshadow="2"
     inkscape:pageopacity="0.0"
     inkscape:pagecheckerboard="0"
     inkscape:deskcolor="#d1d1d1"
     inkscape:zoom="0.1682"
     inkscape:cx="-326.99168"
     inkscape:cy="983.94768"
     inkscape:window-width="1904"
     inkscape:window-height="1039"
     inkscape:window-x="7"
     inkscape:window-y="32"
     inkscape:window-maximized="1"
     inkscape:current-layer="svg2" />
  <path
     d="m 105.2,5.0000003 c 55.3,0 100.2,45.0000007 100.2,100.1999997 0,55.19999 -45,100.19999 -100.2,100.19999 C 50,205.39999 5,160.49999 5,105.2 5,49.9 50,5.0000003 105.2,5.0000003 M 105.2,0 C 47.1,0 0,47.1 0,105.2 c 0,58.09999 47.1,105.19999 105.2,105.19999 58.1,0 105.2,-47.1 105.2,-105.19999 C 210.4,47.100001 163.4,0 105.2,0 Z"
     id="path1" />
  <path
     d="m 97.9,42.200001 c 0,0 -23.7,6.7 -45,29.299999 -21.3,22.600001 -24,38.7 -24,50.69999 C 33.6,114.2 62.6,70.1 69.4,91.1 v 50.19999 c 0,0 -0.4,6.8 -10.8,4.1 3.1,5.8 19.1,20.1 48,23 6.6,-6.6 15.2,-16.1 15.2,-16.1 l 14.4,12.2 c 0,0 25.9,-16.8 36.1,-41.2 -9.5,6.2 -21,20.6 -27,10.5 V 72.7 c 0,0 15.4,-23.1 17.8,-24.2 -6.1,1.1 -27.6,8.2 -38.9,22.8 -3.2,-3.5 -12.1,-3.6 -12.1,-3.6 0,0 7,5.8 7.1,11.1 0.1,5.3 0,49.49999 0,54.59999 -4.8,4.9 -9.9,7.5 -13.2,7.5 -7.7,0 -9.9,-2.7 -12,-5.4 V 71.300001 c 0,0 -3.8,3.199999 -6.8,-2 -3,-5.200001 -3.1,-15.3 10.7,-27.1 z"
     id="path2" />
  <path
     style="opacity:0.99;fill:#ffffff;stroke-width:0"
     d="M 91.041189,204.10507 C 69.149902,200.93791 48.93132,190.49348 33.364632,174.31078 16.860604,157.15362 7.6402535,136.57571 5.5661219,112.27025 3.6949842,90.343473 10.355962,66.537707 23.625923,47.726078 51.816435,7.7629258 104.66264,-5.9794889 148.46378,15.262567 c 25.37777,12.307351 44.33474,34.554237 52.46182,61.566361 8.4681,28.145602 3.84332,58.945802 -12.52759,83.431532 -16.04559,23.99915 -41.32581,39.92905 -69.63132,43.87698 -6.93656,0.96749 -20.927435,0.95115 -27.725501,-0.0324 z m 23.481941,-43.50665 7.43453,-7.79578 7.1517,6.09493 7.1517,6.09494 4.84549,-3.67799 c 9.41454,-7.14613 20.20235,-18.53907 25.75032,-27.19475 2.07143,-3.23176 5.87421,-10.3612 5.87421,-11.01296 0,-0.58193 -2.12165,0.90324 -7.69412,5.38597 -7.46833,6.00782 -10.73211,7.96906 -13.74312,8.25838 -2.03531,0.19556 -2.60459,0.0352 -3.97859,-1.12098 l -1.60343,-1.34919 v -30.9079 -30.907913 l 6.06074,-8.700883 c 5.29109,-7.595965 7.64826,-10.758645 10.91329,-14.642592 0.75362,-0.896493 0.71089,-0.921395 -0.96262,-0.560915 -6.65403,1.433309 -18.61248,6.764906 -25.30983,11.284233 -2.16263,1.45933 -5.85481,4.506867 -8.20484,6.772298 -3.98595,3.842471 -4.3396,4.070072 -5.26823,3.390577 -1.24622,-0.911875 -5.14945,-2.011379 -8.75099,-2.465058 l -2.75195,-0.346661 2.28658,2.446999 c 1.25762,1.345849 2.94633,3.56951 3.75267,4.941468 l 1.46609,2.494463 0.14462,28.089044 0.1446,28.08904 -2.89657,2.31726 c -4.42616,3.54093 -7.62993,4.94885 -11.14784,4.89897 -4.11117,-0.0583 -6.869852,-1.00705 -9.101809,-3.13026 L 94.17508,135.52561 V 103.48677 71.447927 l -2.169199,0.244504 c -2.026589,0.228424 -2.272252,0.119466 -3.736889,-1.65739 -3.009259,-3.650759 -3.15786,-9.094971 -0.408647,-14.97163 1.526898,-3.263866 5.284448,-8.204727 8.174191,-10.748387 1.26394,-1.112558 2.173365,-2.147529 2.02096,-2.299937 -0.471288,-0.47128 -11.370513,4.194415 -16.589258,7.101452 -10.10584,5.629341 -18.026659,11.537633 -25.93068,19.342208 -15.667807,15.470674 -24.646652,31.291296 -26.45334,46.610483 -1.003726,8.5107 -0.857372,8.51975 4.64851,0.28716 11.871896,-17.751234 23.714311,-29.52104 29.703178,-29.52104 0.872041,0 2.206078,0.488128 2.964528,1.084723 2.753505,2.165904 2.758807,2.223345 2.758807,29.853847 0,24.77499 -0.02739,25.50161 -1.008532,26.74893 -1.372195,1.74445 -3.966065,2.52201 -7.014601,2.10273 -3.213035,-0.44191 -3.193081,0.0617 0.142517,3.59692 8.403081,8.906 22.073274,15.51438 38.152197,18.44336 7.514418,1.36885 6.673438,1.76262 15.094308,-7.06744 z"
     id="path3" />
</svg>
